<svg width="1024" height="1024" viewBox="0 0 1024 1024" fill="none" xmlns="http://www.w3.org/2000/svg">
<rect width="1024" height="1024" rx="189" fill="#FF4D00"/>
<path d="M158.609 694.76C158.609 679.818 161.393 664.73 166.959 649.496C172.525 634.262 181.168 619.906 192.887 606.43C235.66 625.18 272.867 639.535 304.508 649.496C336.441 659.457 369.254 664.438 402.945 664.438C409.098 664.438 415.396 663.852 421.842 662.68C428.58 661.508 433.854 659.896 437.662 657.846C439.127 654.623 440.299 650.521 441.178 645.541C442.057 640.268 442.496 636.02 442.496 632.797C442.496 618.441 435.611 606.137 421.842 595.883C408.072 585.629 389.908 575.375 367.35 565.121L351.969 557.65C308.023 535.092 272.721 514.877 246.061 497.006C219.693 478.842 197.281 455.111 178.824 425.814C160.66 396.225 151.578 360.043 151.578 317.27C151.578 254.574 169.01 204.33 203.873 166.537C239.029 128.744 294.84 109.848 371.305 109.848C436.637 109.848 488.346 113.803 526.432 121.713C542.252 131.088 556.021 140.902 567.74 151.156C579.752 161.117 591.178 173.275 602.018 187.631C602.018 208.139 599.967 230.404 595.865 254.428C592.057 278.158 586.637 299.984 579.605 319.906C572.867 339.828 565.543 354.184 557.633 362.973C550.895 366.195 543.424 368.686 535.221 370.443C527.018 371.908 516.91 372.641 504.898 372.641C492.301 372.641 482.047 371.762 474.137 370.004C466.227 368.246 458.902 365.316 452.164 361.215L438.541 269.809C421.549 265.121 403.531 261.752 384.488 259.701C365.445 257.357 352.555 256.332 345.816 256.625C334.977 261.605 327.506 268.637 323.404 277.719C319.596 286.508 317.691 297.055 317.691 309.359C317.691 322.543 321.207 333.969 328.238 343.637C335.562 353.012 344.352 360.775 354.605 366.928C364.859 373.08 378.043 379.965 394.156 387.582L413.492 397.25C455.387 419.223 488.346 438.412 512.369 454.818C536.393 471.225 556.461 492.025 572.574 517.221C588.98 542.123 597.184 572.299 597.184 607.748C597.184 649.057 586.344 684.652 564.664 714.535C542.984 744.125 515.152 765.512 481.168 778.695C462.711 786.02 442.35 791.293 420.084 794.516C397.818 797.738 372.037 799.35 342.74 799.35C322.818 799.35 301.432 796.859 278.58 791.879C255.729 786.898 233.463 778.109 211.783 765.512C190.396 752.914 173.258 736.068 160.367 714.975C159.195 709.408 158.609 702.67 158.609 694.76Z" fill="white"/>
<path d="M423.785 648.309C423.785 591.993 433.225 541.701 452.105 497.43C470.986 453.159 500.12 418.165 539.508 392.449C579.221 366.408 628.701 353.387 687.945 353.387C708.128 353.387 731.24 354.689 757.281 357.293C783.648 359.572 808.876 363.152 832.965 368.035L842.73 374.871C857.379 384.962 868.121 393.1 874.957 399.285C882.118 405.145 889.605 413.445 897.418 424.188C897.418 441.766 894.977 466.017 890.094 496.941C885.536 527.54 879.677 556.023 872.516 582.391C865.354 608.758 858.518 625.685 852.008 633.172C841.266 638.706 823.85 641.473 799.762 641.473C788.043 641.473 776.975 640.659 766.559 639.031C756.467 637.078 748.818 634.637 743.609 631.707L733.355 541.375C728.473 535.841 717.242 531.447 699.664 528.191C682.411 524.611 666.461 522.82 651.812 522.82C647.255 522.82 643.023 523.146 639.117 523.797C631.63 539.096 625.934 558.628 622.027 582.391C618.121 606.154 616.168 630.405 616.168 655.145C616.168 690.952 622.027 721.388 633.746 746.453C645.465 771.193 669.391 783.562 705.523 783.562C723.427 783.562 741.005 780.633 758.258 774.773C775.836 768.914 797.971 759.962 824.664 747.918C835.732 742.71 844.033 738.966 849.566 736.688C862.587 749.708 872.841 763.38 880.328 777.703C887.815 792.026 892.698 810.418 894.977 832.879C874.143 857.293 844.846 881.544 807.086 905.633C769.651 929.721 725.868 941.766 675.738 941.766C622.353 941.766 576.617 928.908 538.531 903.191C500.771 877.15 472.125 841.993 452.594 797.723C433.388 753.126 423.785 703.322 423.785 648.309Z" fill="black"/>
</svg>
